<mxfile host="app.diagrams.net" agent="Mozilla/5.0 (Macintosh; Intel Mac OS X 10_15_7) AppleWebKit/537.36 (KHTML, like Gecko) Chrome/136.0.0.0 Safari/537.36" version="27.0.5" pages="6">
  <diagram id="59breRxvBcIQuKn2kOgU" name="control-path-consistency">
    <mxGraphModel grid="1" page="1" gridSize="10" guides="1" tooltips="1" connect="1" arrows="1" fold="1" pageScale="1" pageWidth="850" pageHeight="1100" math="0" shadow="0">
      <root>
        <mxCell id="0" />
        <mxCell id="1" parent="0" />
        <mxCell id="nkZaS1cyqhaUJ9ut7VJW-4" value="Control Action A" style="edgeStyle=orthogonalEdgeStyle;rounded=0;orthogonalLoop=1;jettySize=auto;html=1;fontSize=11;fontFamily=Oswald;fontSource=https%3A%2F%2Ffonts.googleapis.com%2Fcss%3Ffamily%3DOswald;" edge="1" parent="1" source="nkZaS1cyqhaUJ9ut7VJW-1" target="nkZaS1cyqhaUJ9ut7VJW-3">
          <mxGeometry relative="1" as="geometry" />
        </mxCell>
        <mxCell id="nkZaS1cyqhaUJ9ut7VJW-1" value="Controller A" style="rounded=1;whiteSpace=wrap;html=1;fontSize=11;fontFamily=Oswald;fontSource=https%3A%2F%2Ffonts.googleapis.com%2Fcss%3Ffamily%3DOswald;" vertex="1" parent="1">
          <mxGeometry x="470" y="90" width="80" height="60" as="geometry" />
        </mxCell>
        <mxCell id="nkZaS1cyqhaUJ9ut7VJW-2" value="Controlled Process" style="rounded=1;whiteSpace=wrap;html=1;fontSize=11;fontFamily=Oswald;fontSource=https%3A%2F%2Ffonts.googleapis.com%2Fcss%3Ffamily%3DOswald;" vertex="1" parent="1">
          <mxGeometry x="470" y="300" width="80" height="60" as="geometry" />
        </mxCell>
        <mxCell id="nkZaS1cyqhaUJ9ut7VJW-6" value="Control Action B" style="edgeStyle=orthogonalEdgeStyle;rounded=0;orthogonalLoop=1;jettySize=auto;html=1;fontSize=11;fontFamily=Oswald;fontSource=https%3A%2F%2Ffonts.googleapis.com%2Fcss%3Ffamily%3DOswald;" edge="1" parent="1" source="nkZaS1cyqhaUJ9ut7VJW-3" target="nkZaS1cyqhaUJ9ut7VJW-2">
          <mxGeometry relative="1" as="geometry" />
        </mxCell>
        <mxCell id="X6oWRX7tdgSWZVlXXcFJ-5" value="" style="edgeStyle=orthogonalEdgeStyle;rounded=0;orthogonalLoop=1;jettySize=auto;html=1;fontSize=11;entryX=1;entryY=0.25;entryDx=0;entryDy=0;dashed=1;fontFamily=Oswald;fontSource=https%3A%2F%2Ffonts.googleapis.com%2Fcss%3Ffamily%3DOswald;" edge="1" parent="1" target="X6oWRX7tdgSWZVlXXcFJ-2">
          <mxGeometry relative="1" as="geometry">
            <mxPoint x="470" y="170" as="sourcePoint" />
          </mxGeometry>
        </mxCell>
        <mxCell id="nkZaS1cyqhaUJ9ut7VJW-3" value="Controller B" style="rounded=1;whiteSpace=wrap;html=1;fontSize=11;fontFamily=Oswald;fontSource=https%3A%2F%2Ffonts.googleapis.com%2Fcss%3Ffamily%3DOswald;" vertex="1" parent="1">
          <mxGeometry x="470" y="195" width="80" height="60" as="geometry" />
        </mxCell>
        <mxCell id="X6oWRX7tdgSWZVlXXcFJ-1" style="edgeStyle=orthogonalEdgeStyle;rounded=0;orthogonalLoop=1;jettySize=auto;html=1;fontSize=11;fontFamily=Oswald;fontSource=https%3A%2F%2Ffonts.googleapis.com%2Fcss%3Ffamily%3DOswald;" edge="1" parent="1" source="X6oWRX7tdgSWZVlXXcFJ-2">
          <mxGeometry relative="1" as="geometry">
            <mxPoint x="348" y="170" as="targetPoint" />
          </mxGeometry>
        </mxCell>
        <mxCell id="X6oWRX7tdgSWZVlXXcFJ-2" value="Sentinel" style="whiteSpace=wrap;html=1;verticalAlign=middle;fontSize=11;rounded=1;fontFamily=Oswald;fontSource=https%3A%2F%2Ffonts.googleapis.com%2Fcss%3Ffamily%3DOswald;" vertex="1" parent="1">
          <mxGeometry x="325" y="207.94" width="45" height="35" as="geometry" />
        </mxCell>
        <mxCell id="X6oWRX7tdgSWZVlXXcFJ-3" value="Operator" style="shape=umlActor;verticalLabelPosition=bottom;verticalAlign=top;html=1;outlineConnect=0;aspect=fixed;fontSize=11;fontFamily=Oswald;fontSource=https%3A%2F%2Ffonts.googleapis.com%2Fcss%3Ffamily%3DOswald;" vertex="1" parent="1">
          <mxGeometry x="340.75" y="123" width="13.5" height="27" as="geometry" />
        </mxCell>
        <mxCell id="X6oWRX7tdgSWZVlXXcFJ-6" value="" style="edgeStyle=orthogonalEdgeStyle;rounded=0;orthogonalLoop=1;jettySize=auto;html=1;fontSize=11;entryX=1;entryY=0.75;entryDx=0;entryDy=0;dashed=1;fontFamily=Oswald;fontSource=https%3A%2F%2Ffonts.googleapis.com%2Fcss%3Ffamily%3DOswald;" edge="1" parent="1" target="X6oWRX7tdgSWZVlXXcFJ-2">
          <mxGeometry relative="1" as="geometry">
            <mxPoint x="470" y="280" as="sourcePoint" />
            <mxPoint x="380" y="226.69000000000005" as="targetPoint" />
          </mxGeometry>
        </mxCell>
      </root>
    </mxGraphModel>
  </diagram>
  <diagram name="resource-introspection" id="8ZHfpnn0d3BYlcmmU39V">
    <mxGraphModel grid="1" page="1" gridSize="10" guides="1" tooltips="1" connect="1" arrows="1" fold="1" pageScale="1" pageWidth="850" pageHeight="1100" math="0" shadow="0">
      <root>
        <mxCell id="iFbdHf_XIzYI4UeAdboB-0" />
        <mxCell id="iFbdHf_XIzYI4UeAdboB-1" parent="iFbdHf_XIzYI4UeAdboB-0" />
        <mxCell id="iFbdHf_XIzYI4UeAdboB-4" value="Controlled Process" style="rounded=1;whiteSpace=wrap;html=1;fontSize=10;verticalAlign=top;fontFamily=Oswald;fontSource=https%3A%2F%2Ffonts.googleapis.com%2Fcss%3Ffamily%3DOswald;" vertex="1" parent="iFbdHf_XIzYI4UeAdboB-1">
          <mxGeometry x="470" y="300" width="80" height="60" as="geometry" />
        </mxCell>
        <mxCell id="iFbdHf_XIzYI4UeAdboB-5" value="Control Action / Feedback" style="edgeStyle=orthogonalEdgeStyle;rounded=0;orthogonalLoop=1;jettySize=auto;html=1;fontSize=10;startArrow=classic;startFill=1;fontFamily=Oswald;fontSource=https%3A%2F%2Ffonts.googleapis.com%2Fcss%3Ffamily%3DOswald;" edge="1" parent="iFbdHf_XIzYI4UeAdboB-1" source="iFbdHf_XIzYI4UeAdboB-7" target="iFbdHf_XIzYI4UeAdboB-4">
          <mxGeometry relative="1" as="geometry" />
        </mxCell>
        <mxCell id="iFbdHf_XIzYI4UeAdboB-7" value="Controller" style="rounded=1;whiteSpace=wrap;html=1;fontSize=10;verticalAlign=top;fontFamily=Oswald;fontSource=https%3A%2F%2Ffonts.googleapis.com%2Fcss%3Ffamily%3DOswald;" vertex="1" parent="iFbdHf_XIzYI4UeAdboB-1">
          <mxGeometry x="470" y="176" width="80" height="60" as="geometry" />
        </mxCell>
        <mxCell id="iFbdHf_XIzYI4UeAdboB-8" style="edgeStyle=orthogonalEdgeStyle;rounded=0;orthogonalLoop=1;jettySize=auto;html=1;fontSize=10;fontFamily=Oswald;fontSource=https%3A%2F%2Ffonts.googleapis.com%2Fcss%3Ffamily%3DOswald;" edge="1" parent="iFbdHf_XIzYI4UeAdboB-1" source="iFbdHf_XIzYI4UeAdboB-9">
          <mxGeometry relative="1" as="geometry">
            <mxPoint x="348" y="175" as="targetPoint" />
          </mxGeometry>
        </mxCell>
        <mxCell id="iFbdHf_XIzYI4UeAdboB-9" value="Sentinel" style="whiteSpace=wrap;html=1;verticalAlign=middle;fontSize=10;rounded=1;fontFamily=Oswald;fontSource=https%3A%2F%2Ffonts.googleapis.com%2Fcss%3Ffamily%3DOswald;" vertex="1" parent="iFbdHf_XIzYI4UeAdboB-1">
          <mxGeometry x="325" y="252.94" width="45" height="35" as="geometry" />
        </mxCell>
        <mxCell id="iFbdHf_XIzYI4UeAdboB-10" value="Operator" style="shape=umlActor;verticalLabelPosition=bottom;verticalAlign=top;html=1;outlineConnect=0;aspect=fixed;fontSize=10;fontFamily=Oswald;fontSource=https%3A%2F%2Ffonts.googleapis.com%2Fcss%3Ffamily%3DOswald;" vertex="1" parent="iFbdHf_XIzYI4UeAdboB-1">
          <mxGeometry x="340.75" y="130" width="13.5" height="27" as="geometry" />
        </mxCell>
        <mxCell id="iFbdHf_XIzYI4UeAdboB-11" value="" style="edgeStyle=orthogonalEdgeStyle;rounded=0;orthogonalLoop=1;jettySize=auto;html=1;fontSize=10;entryX=1;entryY=0.5;entryDx=0;entryDy=0;dashed=1;fontFamily=Oswald;fontSource=https%3A%2F%2Ffonts.googleapis.com%2Fcss%3Ffamily%3DOswald;" edge="1" parent="iFbdHf_XIzYI4UeAdboB-1" target="iFbdHf_XIzYI4UeAdboB-9">
          <mxGeometry relative="1" as="geometry">
            <mxPoint x="450" y="270" as="sourcePoint" />
            <mxPoint x="380" y="226.69000000000005" as="targetPoint" />
          </mxGeometry>
        </mxCell>
        <mxCell id="cLAJDs9Ydvkwheq8gpAq-0" value="Resource" style="rounded=1;whiteSpace=wrap;html=1;fontSize=10;fontFamily=Oswald;fontSource=https%3A%2F%2Ffonts.googleapis.com%2Fcss%3Ffamily%3DOswald;" vertex="1" parent="iFbdHf_XIzYI4UeAdboB-1">
          <mxGeometry x="482" y="203" width="60" height="25" as="geometry" />
        </mxCell>
        <mxCell id="iFbdHf_XIzYI4UeAdboB-6" value="" style="edgeStyle=orthogonalEdgeStyle;rounded=0;orthogonalLoop=1;jettySize=auto;html=1;fontSize=10;entryX=0.75;entryY=0;entryDx=0;entryDy=0;dashed=1;exitX=0;exitY=0.5;exitDx=0;exitDy=0;fontFamily=Oswald;fontSource=https%3A%2F%2Ffonts.googleapis.com%2Fcss%3Ffamily%3DOswald;" edge="1" parent="iFbdHf_XIzYI4UeAdboB-1" source="cLAJDs9Ydvkwheq8gpAq-0" target="iFbdHf_XIzYI4UeAdboB-9">
          <mxGeometry relative="1" as="geometry">
            <mxPoint x="470" y="170" as="sourcePoint" />
          </mxGeometry>
        </mxCell>
        <mxCell id="cLAJDs9Ydvkwheq8gpAq-1" value="Resource" style="rounded=1;whiteSpace=wrap;html=1;fontSize=10;fontFamily=Oswald;fontSource=https%3A%2F%2Ffonts.googleapis.com%2Fcss%3Ffamily%3DOswald;" vertex="1" parent="iFbdHf_XIzYI4UeAdboB-1">
          <mxGeometry x="482" y="330" width="60" height="25" as="geometry" />
        </mxCell>
        <mxCell id="cLAJDs9Ydvkwheq8gpAq-2" value="" style="edgeStyle=orthogonalEdgeStyle;rounded=0;orthogonalLoop=1;jettySize=auto;html=1;fontSize=10;entryX=0.75;entryY=1;entryDx=0;entryDy=0;dashed=1;fontFamily=Oswald;fontSource=https%3A%2F%2Ffonts.googleapis.com%2Fcss%3Ffamily%3DOswald;" edge="1" parent="iFbdHf_XIzYI4UeAdboB-1" source="cLAJDs9Ydvkwheq8gpAq-1" target="iFbdHf_XIzYI4UeAdboB-9">
          <mxGeometry relative="1" as="geometry">
            <mxPoint x="492" y="245.5" as="sourcePoint" />
            <mxPoint x="380" y="244.69000000000005" as="targetPoint" />
          </mxGeometry>
        </mxCell>
      </root>
    </mxGraphModel>
  </diagram>
  <diagram id="DdpFQTQERuO0DfoeTWlF" name="tpm">
    <mxGraphModel grid="1" page="1" gridSize="10" guides="1" tooltips="1" connect="1" arrows="1" fold="1" pageScale="1" pageWidth="850" pageHeight="1100" math="0" shadow="0">
      <root>
        <mxCell id="0" />
        <mxCell id="1" parent="0" />
        <mxCell id="OeXMoINmp6pER-v0fMf9-18" style="edgeStyle=orthogonalEdgeStyle;rounded=0;orthogonalLoop=1;jettySize=auto;html=1;fontSize=10;fontFamily=Oswald;fontSource=https%3A%2F%2Ffonts.googleapis.com%2Fcss%3Ffamily%3DOswald;" edge="1" parent="1" source="OeXMoINmp6pER-v0fMf9-2">
          <mxGeometry relative="1" as="geometry">
            <mxPoint x="348" y="300" as="targetPoint" />
          </mxGeometry>
        </mxCell>
        <mxCell id="OeXMoINmp6pER-v0fMf9-2" value="Sentinel" style="whiteSpace=wrap;html=1;verticalAlign=middle;fontSize=10;rounded=1;fontFamily=Oswald;fontSource=https%3A%2F%2Ffonts.googleapis.com%2Fcss%3Ffamily%3DOswald;" vertex="1" parent="1">
          <mxGeometry x="325" y="332.94" width="45" height="35" as="geometry" />
        </mxCell>
        <mxCell id="OeXMoINmp6pER-v0fMf9-5" value="Operator" style="shape=umlActor;verticalLabelPosition=bottom;verticalAlign=top;html=1;outlineConnect=0;aspect=fixed;fontSize=10;fontFamily=Oswald;fontSource=https%3A%2F%2Ffonts.googleapis.com%2Fcss%3Ffamily%3DOswald;" vertex="1" parent="1">
          <mxGeometry x="340.75" y="255" width="13.5" height="27" as="geometry" />
        </mxCell>
        <mxCell id="OeXMoINmp6pER-v0fMf9-1" value="Controller" style="whiteSpace=wrap;html=1;align=center;verticalAlign=top;fontSize=10;rounded=1;fontFamily=Oswald;fontSource=https%3A%2F%2Ffonts.googleapis.com%2Fcss%3Ffamily%3DOswald;" vertex="1" parent="1">
          <mxGeometry x="410" y="250" width="130" height="130" as="geometry" />
        </mxCell>
        <mxCell id="OeXMoINmp6pER-v0fMf9-4" value="" style="shape=image;verticalLabelPosition=bottom;labelBackgroundColor=default;verticalAlign=top;aspect=fixed;imageAspect=0;image=data:image/png,iVBORw0KGgoAAAANSUhEUgAAARIAAAC4CAMAAAAYGZMtAAAAeFBMVEX///8AAAD09PTi4uLp6emWlpZWVlYzMzN2dnZ6enrAwMBQUFCcnJwvLy/8/PzKysqRkZE6OjpISEhpaWmGhoYXFxempqZeXl7Ozs4lJSXGxsZ4eHi6urq0tLRtbW3d3d1BQUGJiYkWFhaioqIgICBkZGQODg4pKSlgomsyAAAJzUlEQVR4nO2daYOyIBDHzWq7nuw2O8za3bbv/w2fPBgYwAO1QuX/Kh2x+IUwDIeWZWRkZGRkZGRkZNRGeZfxU5cgOXTGkVxiDrDZ4sxuZN6QQ+cUmX+weWzj1GD245vDb5lE5n/YTFOfsPllOvciLZJDJz6En7mIj4/kmDOf4mMLpwZEk/jYxqnv5HArTc2budRflbOcpwSJh3/WmJjlSMA8kWbqwpm5TAExHslOauZS7ytnOU8GiSCDRJBBIsggEWSQCDJIBBkkggwSQQaJIINEkBxJTh8nB0lOHycVyV90mNPHeT2S427+1A6QPMLDw5aYPWy2Rth8O4THf+TQic0TbJ7bKPUDzEsu9Soyn7D5wKWmHWcjIyMt5Az6TdXAeQEP253F9Xsz9b33a6bi3D6dpxrk5uezuILfT2enFl0HtRGZfjovtSnIz2whLT6dkRpVTzmxP52NOrWqBcnm09moVT/5Gc5VAHf716/hdp9RsIVc1NAWX5JbXV/h7bxPA9Jo1tAUJ3f6rX6nz2pA/trKd/KSO00r3+nTWiY5qXwjv75H8MMixaSybzKsq7h9XElYEuKBpZUgef2MhNdrVFMVYJAIMkgEGSSCDBJBBokgg0SQQSLIIBFkkAgySAQZJIIMEkEGiSCDRFBhJM52kqdxYDmS09ul73ERquGJGFO/D25aOIvvR1JgFH2RPig0O7M3W8P5tAzQEcjC623ej6TAuHEGkl7vl4Eyg7PXlK+7dgHJs6TA40ORpMQFPXpBq5H0/sjMOwaJ/Ju/uoIEBgIYJNKIesDY247kGt+MRSKbpDnuEJJkfJJFIpkAge6iMZJ8Ir1jgZkZUXWCkNyE71qyZn2RWDajAfzgM3vaYZBcHLj4fOFziJDQGeCJMH2NkbCiOZ+mGU7s6eAA56PxeIyEnxPithTJGJ2nxSpqYTCSP3wPCxlbi4Qs4OjFFSxG0vPRpT42thaJBY9O2OhySOboynlXkEAVG34Vh4Qu77HECZbtRfJDDOGkQx7JmrmQt7UXCdQQB0vMNuPVB7ypvUiglIwsCRJYrCbOOW0vkj0xyOoS6tUPBEtrkQyQQURCVgduBUtrkdC+beiEiEiSsIGkj9RWJP9oFsNHRILkH39d+5AwsXfHYxDMwjNwvKbhs+jKb3J0h+Bre5A8vohoZDlUFJQGJFcaZA0fKOrLBy1EkqLYdwckKzp+8aC5CqNv8LH1SOKAPIOE+u9H68h87gySJILGILFW5POalpiR1RkkJPTMIqHjeuDghhVOR5BAw8wi4YMBvbgb1A0kNFKEkJylF3YByYSJOiMkNLqUKAo8th3JbuOiMDxGwkUW47GeFiLZe1TC4BVGYoHPGis610IkJ3nKWBwSPEoRDwi2EAkfL0HikOBhivhU15FQjwQGurqOhC0myXyLziOhcZJhcqbzSOjIOGmsO48E5k8syQmDhCSk+8gpIzm0DIkgdST+3iAR5JzvBokgx/3QAnt9kdSgBiOx+4uz77r++RjUt3uY1VgkffcCF4T6nQ351Ryl1UQkwfbRk+l+roVK45DYLoT0JdrWsMVVw5DY4swCTrO6drmpH0nm/sUwYDNPvQSeDRYJG0RI1YafWqyockicZaJbkGJYnuUpY7nkqvQW9h+5ZAGnPD5unaZq+801aLnjpCCQp1ZVWuXGIBnIisjqMjlNpHv3ZhbSbDUFibDd6N1lHJH+dMJzWWbcLFsNQcKNCF4kfbtgicc+Mpu8LDUDCR78WqY1KWc0vFx2z/5GIEFlZJLVxiJ2JctJE5AwK2R7qxxPzDlVrk8agISdHZy+IB/E7oTt518uqgFIVopZZJvrMl0e/ZEwvRo+YGafJ19fmx/+WXLoHMpHiS/UHomX+pfbMOP6uuAS0W0exOWludIeCXXBuMKAds/nGhdnlJaqgHRHMkyrR8Lm9uE+C459vIsZoFXytexX6oqEBhu22OCxpxainXYAlAcxNEcCvV8+1rRDgZS++ITAinTlGvZH/o2aiBYSLsNusj6ByOeOLWbuqGoxIZVUxUjUiwQ1CfdYhL4KhvQtNEjQVPGs8kRWF5by814u6Nty/1hYevCZm7gpP6xrUW10kmR/OhYTWGYwFA0bfMYXnX1YS8oXsTyRCqxSbO5FAl+M/7+mAgBP8k5D4rCpVrB0Xe52Yeuj6LcRN03o5U+FSaSBpNWEmILqk8NuLqKNlujfEiYDFEMCkwJVI/ZavjIo2oSAjNp8C7+5IBLybyt7XV7a7/qgogeHrLYWI4ZiXSJFQmJsO+WxYg2ZRL+LDPghB8EZPGua0DNzkW7PM0/DAFXE0NNRbzr6RYfR3qXIu4InGvlg/eyUuMElZ4+WugoNtr5PURMDtSv++7JT4nAr8dZKvVrJ8TcavfAyyhjpa4zKIyFOF+/qFZc90ERRjUAqR+yCKSEhfaTSw1yaiazSwa67EhJyi9e/rPs9IvnBbbASEtJJur7vV79U5MGpUEqIe1EtHDSN3sf+Da9rP+AXrnvf0evaISQ+x69r30aX03fQz2Wva3/YODV9H/sv+7p2goRuChRKCQkJN17LsUiU9JUACVd4ky+Bhj4+hOorqeItnHrDmW2cGsxblJr02rBXWurBUY0iYcmRQJ5LIblw5mJIyF+M57MpIZEXNFXpgwTccdRDUUJyk55VlT5ISjn0OPOkK1ztxaD6IIEYO5p3poSEOOTVVl9ohIQEB1BXTgVJhZ4wK42QkGWhqJOjgoS0WWXmD4i30QEJxHHYykQFyb3H/bxy0ggJrJRl86mABOrnioNUGiGByuTA/D4FJLC7Q8XxGJ2QwKgDM6yrgIRMMqk6B0AnJPDkMN224khgTk7Vwd0ECenXFevjgHksRQL+tBwJmHkkdC4FLSbFkUBAueparmA5fGpJKnlnGAm8pT42W5z5HJstbIa/aRqZh06mmckV5P8hnpKLzk37EU+1QjD6D+7aYLXO0BUG9ujULA0Hu6uIjlir+uRrAWZbBPsrK04KupVM1wCVnJpIN5yqtqhNS9H9bxTiQHRObMXujZ6ia2w2+RfHYharVF4iq6OYVrdgCJXZpu3tezi8R8yyo3mRlRNjZYbNE7uCPNc57zPbM/zWtTODfrozTPaZnpeDFuC3zElDYpn0tqmehuPu2Atr2JJBY+GXf1yk7chgiKaD/LWbiLC6frTkHPz+zxpfMW+d1yoIb4Aa1Spbd3p8aurf7sJ0oX17a1Yq4V1CWWqhGy9V4UnLh7ZXI1THXT6OXpWZaU2U5GUxvC7tr1c5+aNMINs2u2ep8lLrlJnfhXZGKse7CTuJ/W7OnXtiONmePxzvZ+vr+utyc6eDzpYPIyMjIyO99R8AiLDYNLxaPQAAAABJRU5ErkJggg==;fontSize=10;fontFamily=Oswald;fontSource=https%3A%2F%2Ffonts.googleapis.com%2Fcss%3Ffamily%3DOswald;" vertex="1" parent="1">
          <mxGeometry x="471.65" y="333.16" width="53.29" height="35.78" as="geometry" />
        </mxCell>
        <mxCell id="OeXMoINmp6pER-v0fMf9-13" value="" style="group;fontSize=10;fontFamily=Oswald;fontSource=https%3A%2F%2Ffonts.googleapis.com%2Fcss%3Ffamily%3DOswald;" connectable="0" vertex="1" parent="1">
          <mxGeometry x="419" y="283" width="70" height="30" as="geometry" />
        </mxCell>
        <mxCell id="OeXMoINmp6pER-v0fMf9-8" value="" style="shape=document;whiteSpace=wrap;html=1;boundedLbl=1;fontSize=10;fontFamily=Oswald;fontSource=https%3A%2F%2Ffonts.googleapis.com%2Fcss%3Ffamily%3DOswald;" vertex="1" parent="OeXMoINmp6pER-v0fMf9-13">
          <mxGeometry width="60" height="20" as="geometry" />
        </mxCell>
        <mxCell id="OeXMoINmp6pER-v0fMf9-11" value="" style="shape=document;whiteSpace=wrap;html=1;boundedLbl=1;fontSize=10;fontFamily=Oswald;fontSource=https%3A%2F%2Ffonts.googleapis.com%2Fcss%3Ffamily%3DOswald;" vertex="1" parent="OeXMoINmp6pER-v0fMf9-13">
          <mxGeometry x="5" y="5" width="60" height="20" as="geometry" />
        </mxCell>
        <mxCell id="OeXMoINmp6pER-v0fMf9-12" value="SW / Config" style="shape=document;whiteSpace=wrap;html=1;boundedLbl=1;fontSize=10;fontFamily=Oswald;fontSource=https%3A%2F%2Ffonts.googleapis.com%2Fcss%3Ffamily%3DOswald;" vertex="1" parent="OeXMoINmp6pER-v0fMf9-13">
          <mxGeometry x="10" y="10" width="60" height="20" as="geometry" />
        </mxCell>
        <mxCell id="OeXMoINmp6pER-v0fMf9-17" value="PCR(SHA256)" style="edgeStyle=orthogonalEdgeStyle;rounded=0;orthogonalLoop=1;jettySize=auto;html=1;entryX=0.594;entryY=0.008;entryDx=0;entryDy=0;fontSize=10;exitX=1;exitY=0.25;exitDx=0;exitDy=0;entryPerimeter=0;fontFamily=Oswald;fontSource=https%3A%2F%2Ffonts.googleapis.com%2Fcss%3Ffamily%3DOswald;" edge="1" parent="1" source="OeXMoINmp6pER-v0fMf9-12" target="OeXMoINmp6pER-v0fMf9-4">
          <mxGeometry x="0.4593" relative="1" as="geometry">
            <mxPoint x="420.72" y="355.80000000000007" as="sourcePoint" />
            <mxPoint x="329.71000000000004" y="350.0725" as="targetPoint" />
            <mxPoint as="offset" />
          </mxGeometry>
        </mxCell>
        <mxCell id="OeXMoINmp6pER-v0fMf9-14" value="TOTP &lt;br style=&quot;font-size: 10px;&quot;&gt;Attestation" style="edgeStyle=orthogonalEdgeStyle;rounded=0;orthogonalLoop=1;jettySize=auto;html=1;fontSize=10;fontFamily=Oswald;fontSource=https%3A%2F%2Ffonts.googleapis.com%2Fcss%3Ffamily%3DOswald;" edge="1" parent="1" source="OeXMoINmp6pER-v0fMf9-4" target="OeXMoINmp6pER-v0fMf9-2">
          <mxGeometry x="-0.4578" y="-1" relative="1" as="geometry">
            <mxPoint x="350" y="339" as="targetPoint" />
            <mxPoint as="offset" />
          </mxGeometry>
        </mxCell>
      </root>
    </mxGraphModel>
  </diagram>
  <diagram id="H9Bp5lPaso4_6xON5a2O" name="diverse-redundant-part">
    <mxGraphModel grid="1" page="1" gridSize="10" guides="1" tooltips="1" connect="1" arrows="1" fold="1" pageScale="1" pageWidth="850" pageHeight="1100" math="0" shadow="0">
      <root>
        <mxCell id="0" />
        <mxCell id="1" parent="0" />
        <mxCell id="aHftxAulBJSBimRzWc_2-4" value="" style="rounded=1;whiteSpace=wrap;html=1;fillColor=none;dashed=1;fontSize=10;fontFamily=Oswald;fontSource=https%3A%2F%2Ffonts.googleapis.com%2Fcss%3Ffamily%3DOswald;" vertex="1" parent="1">
          <mxGeometry x="310" y="194" width="80" height="130" as="geometry" />
        </mxCell>
        <mxCell id="tvyiJnSRT_HKv3oDGViA-3" value="Controller A&lt;br style=&quot;font-size: 10px;&quot;&gt;&lt;br style=&quot;font-size: 10px;&quot;&gt;&lt;i style=&quot;font-size: 10px;&quot;&gt;Implementation 2 / Supplier 2&lt;/i&gt;" style="rounded=1;whiteSpace=wrap;html=1;fontSize=10;verticalAlign=top;fontFamily=Oswald;fontSource=https%3A%2F%2Ffonts.googleapis.com%2Fcss%3Ffamily%3DOswald;" vertex="1" parent="1">
          <mxGeometry x="510" y="280" width="120" height="54" as="geometry" />
        </mxCell>
        <mxCell id="tvyiJnSRT_HKv3oDGViA-5" value="Sentinel&lt;br style=&quot;font-size: 10px;&quot;&gt;&lt;i style=&quot;font-size: 10px;&quot;&gt;(Automatic)&lt;/i&gt;" style="whiteSpace=wrap;html=1;verticalAlign=middle;fontSize=10;rounded=1;fontFamily=Oswald;fontSource=https%3A%2F%2Ffonts.googleapis.com%2Fcss%3Ffamily%3DOswald;" vertex="1" parent="1">
          <mxGeometry x="323.75" y="275" width="52.5" height="35" as="geometry" />
        </mxCell>
        <mxCell id="tvyiJnSRT_HKv3oDGViA-6" value="Operator&lt;br style=&quot;font-size: 10px;&quot;&gt;&lt;i style=&quot;font-size: 10px;&quot;&gt;(Manual)&lt;/i&gt;" style="shape=umlActor;verticalLabelPosition=bottom;verticalAlign=top;html=1;outlineConnect=0;aspect=fixed;fontSize=10;fontFamily=Oswald;fontSource=https%3A%2F%2Ffonts.googleapis.com%2Fcss%3Ffamily%3DOswald;" vertex="1" parent="1">
          <mxGeometry x="343.25" y="207" width="13.5" height="27" as="geometry" />
        </mxCell>
        <mxCell id="aHftxAulBJSBimRzWc_2-1" value="Controller A&lt;br style=&quot;font-size: 10px;&quot;&gt;&lt;br style=&quot;font-size: 10px;&quot;&gt;&lt;i style=&quot;font-size: 10px;&quot;&gt;Implementation 1 / Supplier 1&lt;/i&gt;" style="rounded=1;whiteSpace=wrap;html=1;fontSize=10;verticalAlign=top;fontFamily=Oswald;fontSource=https%3A%2F%2Ffonts.googleapis.com%2Fcss%3Ffamily%3DOswald;" vertex="1" parent="1">
          <mxGeometry x="510" y="180" width="120" height="54" as="geometry" />
        </mxCell>
        <mxCell id="aHftxAulBJSBimRzWc_2-5" value="Switch&lt;br style=&quot;font-size: 10px;&quot;&gt;Active Controller" style="edgeStyle=orthogonalEdgeStyle;rounded=0;orthogonalLoop=1;jettySize=auto;html=1;entryX=0;entryY=0.5;entryDx=0;entryDy=0;dashed=1;fontSize=10;fontFamily=Oswald;fontSource=https%3A%2F%2Ffonts.googleapis.com%2Fcss%3Ffamily%3DOswald;" edge="1" parent="1" source="aHftxAulBJSBimRzWc_2-4" target="aHftxAulBJSBimRzWc_2-1">
          <mxGeometry x="-0.4186" relative="1" as="geometry">
            <Array as="points">
              <mxPoint x="490" y="259" />
              <mxPoint x="490" y="207" />
            </Array>
            <mxPoint as="offset" />
          </mxGeometry>
        </mxCell>
        <mxCell id="2rb56DDlDDG7o6Qho63D-1" style="edgeStyle=orthogonalEdgeStyle;rounded=0;orthogonalLoop=1;jettySize=auto;html=1;entryX=0;entryY=0.5;entryDx=0;entryDy=0;dashed=1;fontSize=10;fontFamily=Oswald;fontSource=https%3A%2F%2Ffonts.googleapis.com%2Fcss%3Ffamily%3DOswald;" edge="1" parent="1" source="aHftxAulBJSBimRzWc_2-4" target="tvyiJnSRT_HKv3oDGViA-3">
          <mxGeometry relative="1" as="geometry">
            <Array as="points">
              <mxPoint x="490" y="259" />
              <mxPoint x="490" y="307" />
            </Array>
          </mxGeometry>
        </mxCell>
      </root>
    </mxGraphModel>
  </diagram>
  <diagram id="KKG_FhhZE6HhKe_vYB9A" name="diverse-redundant-path">
    <mxGraphModel grid="1" page="1" gridSize="10" guides="1" tooltips="1" connect="1" arrows="1" fold="1" pageScale="1" pageWidth="850" pageHeight="1100" math="0" shadow="0">
      <root>
        <mxCell id="0" />
        <mxCell id="1" parent="0" />
        <mxCell id="U160NmE4QbaLCkwYWiPv-1" value="" style="rounded=1;whiteSpace=wrap;html=1;fillColor=none;dashed=1;fontSize=10;fontFamily=Oswald;fontSource=https%3A%2F%2Ffonts.googleapis.com%2Fcss%3Ffamily%3DOswald;" vertex="1" parent="1">
          <mxGeometry x="300" y="210" width="80" height="130" as="geometry" />
        </mxCell>
        <mxCell id="U160NmE4QbaLCkwYWiPv-2" value="Controlled Process" style="rounded=1;whiteSpace=wrap;html=1;fontSize=10;verticalAlign=top;fontFamily=Oswald;fontSource=https%3A%2F%2Ffonts.googleapis.com%2Fcss%3Ffamily%3DOswald;" vertex="1" parent="1">
          <mxGeometry x="510" y="310" width="170" height="54" as="geometry" />
        </mxCell>
        <mxCell id="U160NmE4QbaLCkwYWiPv-3" value="Sentinel&lt;br style=&quot;font-size: 10px;&quot;&gt;&lt;i style=&quot;font-size: 10px;&quot;&gt;(Automatic)&lt;/i&gt;" style="whiteSpace=wrap;html=1;verticalAlign=middle;fontSize=10;rounded=1;fontFamily=Oswald;fontSource=https%3A%2F%2Ffonts.googleapis.com%2Fcss%3Ffamily%3DOswald;" vertex="1" parent="1">
          <mxGeometry x="306.875" y="291" width="66.25" height="35" as="geometry" />
        </mxCell>
        <mxCell id="U160NmE4QbaLCkwYWiPv-4" value="Operator&lt;br style=&quot;font-size: 10px;&quot;&gt;&lt;i style=&quot;font-size: 10px;&quot;&gt;(Manual)&lt;/i&gt;" style="shape=umlActor;verticalLabelPosition=bottom;verticalAlign=top;html=1;outlineConnect=0;aspect=fixed;fontSize=10;fontFamily=Oswald;fontSource=https%3A%2F%2Ffonts.googleapis.com%2Fcss%3Ffamily%3DOswald;" vertex="1" parent="1">
          <mxGeometry x="333.25" y="223" width="13.5" height="27" as="geometry" />
        </mxCell>
        <mxCell id="DWl1E4mTyK0uTKGwyJaT-1" value="Control Path A&lt;br style=&quot;font-size: 10px;&quot;&gt;&lt;i style=&quot;font-size: 10px;&quot;&gt;Technology 1&lt;/i&gt;" style="edgeStyle=orthogonalEdgeStyle;rounded=0;orthogonalLoop=1;jettySize=auto;html=1;exitX=0.25;exitY=1;exitDx=0;exitDy=0;entryX=0.25;entryY=0;entryDx=0;entryDy=0;startArrow=none;startFill=0;fontSize=10;fontFamily=Oswald;fontSource=https%3A%2F%2Ffonts.googleapis.com%2Fcss%3Ffamily%3DOswald;" edge="1" parent="1" source="U160NmE4QbaLCkwYWiPv-5" target="U160NmE4QbaLCkwYWiPv-2">
          <mxGeometry relative="1" as="geometry" />
        </mxCell>
        <mxCell id="He_8EgR5CKAbSgzLvo-e-1" value="&lt;span style=&quot;color: rgb(0, 0, 0); font-size: 10px; font-style: normal; font-variant-ligatures: normal; font-variant-caps: normal; font-weight: 400; letter-spacing: normal; orphans: 2; text-align: center; text-indent: 0px; text-transform: none; widows: 2; word-spacing: 0px; -webkit-text-stroke-width: 0px; background-color: rgb(255, 255, 255); text-decoration-thickness: initial; text-decoration-style: initial; text-decoration-color: initial; float: none; display: inline !important;&quot;&gt;Control Path B&lt;/span&gt;&lt;br style=&quot;color: rgb(0, 0, 0); font-size: 10px; font-style: normal; font-variant-ligatures: normal; font-variant-caps: normal; font-weight: 400; letter-spacing: normal; orphans: 2; text-align: center; text-indent: 0px; text-transform: none; widows: 2; word-spacing: 0px; -webkit-text-stroke-width: 0px; text-decoration-thickness: initial; text-decoration-style: initial; text-decoration-color: initial;&quot;&gt;&lt;span style=&quot;color: rgb(0, 0, 0); font-size: 10px; font-variant-ligatures: normal; font-variant-caps: normal; font-weight: 400; letter-spacing: normal; orphans: 2; text-align: center; text-indent: 0px; text-transform: none; widows: 2; word-spacing: 0px; -webkit-text-stroke-width: 0px; background-color: rgb(255, 255, 255); text-decoration-thickness: initial; text-decoration-style: initial; text-decoration-color: initial; float: none; display: inline !important;&quot;&gt;&lt;i style=&quot;font-size: 10px;&quot;&gt;Technology 2&lt;/i&gt;&lt;/span&gt;" style="edgeStyle=orthogonalEdgeStyle;rounded=0;orthogonalLoop=1;jettySize=auto;html=1;exitX=0.75;exitY=1;exitDx=0;exitDy=0;entryX=0.75;entryY=0;entryDx=0;entryDy=0;startArrow=none;startFill=0;fontSize=10;fontFamily=Oswald;fontSource=https%3A%2F%2Ffonts.googleapis.com%2Fcss%3Ffamily%3DOswald;" edge="1" parent="1" source="U160NmE4QbaLCkwYWiPv-5" target="U160NmE4QbaLCkwYWiPv-2">
          <mxGeometry relative="1" as="geometry" />
        </mxCell>
        <mxCell id="U160NmE4QbaLCkwYWiPv-5" value="Controller" style="rounded=1;whiteSpace=wrap;html=1;fontSize=10;verticalAlign=top;fontFamily=Oswald;fontSource=https%3A%2F%2Ffonts.googleapis.com%2Fcss%3Ffamily%3DOswald;" vertex="1" parent="1">
          <mxGeometry x="510" y="180" width="170" height="54" as="geometry" />
        </mxCell>
        <mxCell id="U160NmE4QbaLCkwYWiPv-6" value="Switch&lt;br style=&quot;font-size: 10px;&quot;&gt;Active Control Path" style="edgeStyle=orthogonalEdgeStyle;rounded=0;orthogonalLoop=1;jettySize=auto;html=1;entryX=0;entryY=0.5;entryDx=0;entryDy=0;dashed=1;fontSize=10;fontFamily=Oswald;fontSource=https%3A%2F%2Ffonts.googleapis.com%2Fcss%3Ffamily%3DOswald;" edge="1" parent="1" source="U160NmE4QbaLCkwYWiPv-1" target="U160NmE4QbaLCkwYWiPv-5">
          <mxGeometry x="-0.4186" relative="1" as="geometry">
            <Array as="points">
              <mxPoint x="490" y="275" />
              <mxPoint x="490" y="207" />
            </Array>
            <mxPoint as="offset" />
          </mxGeometry>
        </mxCell>
        <mxCell id="U160NmE4QbaLCkwYWiPv-7" style="edgeStyle=orthogonalEdgeStyle;rounded=0;orthogonalLoop=1;jettySize=auto;html=1;entryX=0;entryY=0.5;entryDx=0;entryDy=0;dashed=1;exitX=1;exitY=0.5;exitDx=0;exitDy=0;fontSize=10;fontFamily=Oswald;fontSource=https%3A%2F%2Ffonts.googleapis.com%2Fcss%3Ffamily%3DOswald;" edge="1" parent="1" source="U160NmE4QbaLCkwYWiPv-1" target="U160NmE4QbaLCkwYWiPv-2">
          <mxGeometry relative="1" as="geometry">
            <Array as="points">
              <mxPoint x="490" y="275" />
              <mxPoint x="490" y="337" />
            </Array>
          </mxGeometry>
        </mxCell>
      </root>
    </mxGraphModel>
  </diagram>
  <diagram id="1_W3ueyU2_22YDxh7tR1" name="protected-restore">
    <mxGraphModel grid="1" page="1" gridSize="10" guides="1" tooltips="1" connect="1" arrows="1" fold="1" pageScale="1" pageWidth="850" pageHeight="1100" math="0" shadow="0">
      <root>
        <mxCell id="0" />
        <mxCell id="1" parent="0" />
        <mxCell id="dnf51PGzHAsuMJKaxaig-3" value="Sentinel&lt;br style=&quot;font-size: 10px;&quot;&gt;&lt;i style=&quot;font-size: 10px;&quot;&gt;(Automatic)&lt;/i&gt;" style="whiteSpace=wrap;html=1;verticalAlign=top;fontSize=10;rounded=1;fontFamily=Oswald;fontSource=https%3A%2F%2Ffonts.googleapis.com%2Fcss%3Ffamily%3DOswald;" vertex="1" parent="1">
          <mxGeometry x="311.75" y="235" width="110" height="75" as="geometry" />
        </mxCell>
        <mxCell id="dnf51PGzHAsuMJKaxaig-4" value="Operator&lt;br style=&quot;font-size: 10px;&quot;&gt;&lt;i style=&quot;font-size: 10px;&quot;&gt;(Manual)&lt;/i&gt;" style="shape=umlActor;verticalLabelPosition=bottom;verticalAlign=top;html=1;outlineConnect=0;aspect=fixed;fontSize=10;fontFamily=Oswald;fontSource=https%3A%2F%2Ffonts.googleapis.com%2Fcss%3Ffamily%3DOswald;" vertex="1" parent="1">
          <mxGeometry x="360" y="130" width="13.5" height="27" as="geometry" />
        </mxCell>
        <mxCell id="dnf51PGzHAsuMJKaxaig-7" value="Controller" style="rounded=1;whiteSpace=wrap;html=1;fontSize=10;verticalAlign=top;fontFamily=Oswald;fontSource=https%3A%2F%2Ffonts.googleapis.com%2Fcss%3Ffamily%3DOswald;" vertex="1" parent="1">
          <mxGeometry x="520" y="235" width="110" height="75" as="geometry" />
        </mxCell>
        <mxCell id="r9fNCV0LxzfyXhot_zk_-13" value="" style="group;fontSize=10;fontFamily=Oswald;fontSource=https%3A%2F%2Ffonts.googleapis.com%2Fcss%3Ffamily%3DOswald;" connectable="0" vertex="1" parent="1">
          <mxGeometry x="540" y="267.5" width="70" height="30" as="geometry" />
        </mxCell>
        <mxCell id="r9fNCV0LxzfyXhot_zk_-14" value="" style="shape=document;whiteSpace=wrap;html=1;boundedLbl=1;fontSize=10;fontFamily=Oswald;fontSource=https%3A%2F%2Ffonts.googleapis.com%2Fcss%3Ffamily%3DOswald;" vertex="1" parent="r9fNCV0LxzfyXhot_zk_-13">
          <mxGeometry width="60" height="20" as="geometry" />
        </mxCell>
        <mxCell id="r9fNCV0LxzfyXhot_zk_-15" value="" style="shape=document;whiteSpace=wrap;html=1;boundedLbl=1;fontSize=10;fontFamily=Oswald;fontSource=https%3A%2F%2Ffonts.googleapis.com%2Fcss%3Ffamily%3DOswald;" vertex="1" parent="r9fNCV0LxzfyXhot_zk_-13">
          <mxGeometry x="5" y="5" width="60" height="20" as="geometry" />
        </mxCell>
        <mxCell id="r9fNCV0LxzfyXhot_zk_-16" value="SW / Config" style="shape=document;whiteSpace=wrap;html=1;boundedLbl=1;fontSize=10;fontFamily=Oswald;fontSource=https%3A%2F%2Ffonts.googleapis.com%2Fcss%3Ffamily%3DOswald;" vertex="1" parent="r9fNCV0LxzfyXhot_zk_-13">
          <mxGeometry x="10" y="10" width="60" height="20" as="geometry" />
        </mxCell>
        <mxCell id="r9fNCV0LxzfyXhot_zk_-17" value="" style="group;fontSize=10;fontFamily=Oswald;fontSource=https%3A%2F%2Ffonts.googleapis.com%2Fcss%3Ffamily%3DOswald;" connectable="0" vertex="1" parent="1">
          <mxGeometry x="322" y="273" width="70" height="30" as="geometry" />
        </mxCell>
        <mxCell id="r9fNCV0LxzfyXhot_zk_-18" value="" style="shape=document;whiteSpace=wrap;html=1;boundedLbl=1;fontSize=10;fontFamily=Oswald;fontSource=https%3A%2F%2Ffonts.googleapis.com%2Fcss%3Ffamily%3DOswald;" vertex="1" parent="r9fNCV0LxzfyXhot_zk_-17">
          <mxGeometry width="60" height="20" as="geometry" />
        </mxCell>
        <mxCell id="r9fNCV0LxzfyXhot_zk_-19" value="" style="shape=document;whiteSpace=wrap;html=1;boundedLbl=1;fontSize=10;fontFamily=Oswald;fontSource=https%3A%2F%2Ffonts.googleapis.com%2Fcss%3Ffamily%3DOswald;" vertex="1" parent="r9fNCV0LxzfyXhot_zk_-17">
          <mxGeometry x="5" y="5" width="60" height="20" as="geometry" />
        </mxCell>
        <mxCell id="r9fNCV0LxzfyXhot_zk_-20" value="SW / Config" style="shape=document;whiteSpace=wrap;html=1;boundedLbl=1;fontSize=10;fontFamily=Oswald;fontSource=https%3A%2F%2Ffonts.googleapis.com%2Fcss%3Ffamily%3DOswald;" vertex="1" parent="r9fNCV0LxzfyXhot_zk_-17">
          <mxGeometry x="10" y="10" width="60" height="20" as="geometry" />
        </mxCell>
        <mxCell id="r9fNCV0LxzfyXhot_zk_-21" value="" style="sketch=0;pointerEvents=1;shadow=0;dashed=0;html=1;strokeColor=none;fillColor=#505050;labelPosition=center;verticalLabelPosition=bottom;verticalAlign=top;outlineConnect=0;align=center;shape=mxgraph.office.security.lock_protected;fontSize=10;fontFamily=Oswald;fontSource=https%3A%2F%2Ffonts.googleapis.com%2Fcss%3Ffamily%3DOswald;" vertex="1" parent="1">
          <mxGeometry x="396" y="276" width="18" height="22" as="geometry" />
        </mxCell>
        <mxCell id="r9fNCV0LxzfyXhot_zk_-27" value="" style="edgeStyle=orthogonalEdgeStyle;rounded=0;orthogonalLoop=1;jettySize=auto;html=1;entryX=0.5;entryY=0;entryDx=0;entryDy=0;fontSize=10;startArrow=none;startFill=0;dashed=1;fontFamily=Oswald;fontSource=https%3A%2F%2Ffonts.googleapis.com%2Fcss%3Ffamily%3DOswald;" edge="1" parent="1" target="dnf51PGzHAsuMJKaxaig-3">
          <mxGeometry relative="1" as="geometry">
            <mxPoint x="367" y="190" as="sourcePoint" />
            <mxPoint x="530" y="282.5" as="targetPoint" />
          </mxGeometry>
        </mxCell>
        <mxCell id="r9fNCV0LxzfyXhot_zk_-26" value="Restore&lt;br style=&quot;font-size: 10px;&quot;&gt;SW / Config" style="edgeStyle=orthogonalEdgeStyle;rounded=0;orthogonalLoop=1;jettySize=auto;html=1;entryX=0;entryY=0.5;entryDx=0;entryDy=0;fontSize=10;startArrow=none;startFill=0;dashed=1;fontFamily=Oswald;fontSource=https%3A%2F%2Ffonts.googleapis.com%2Fcss%3Ffamily%3DOswald;" edge="1" parent="1" source="dnf51PGzHAsuMJKaxaig-3" target="dnf51PGzHAsuMJKaxaig-7">
          <mxGeometry x="-0.0178" y="3" relative="1" as="geometry">
            <mxPoint y="1" as="offset" />
          </mxGeometry>
        </mxCell>
      </root>
    </mxGraphModel>
  </diagram>
</mxfile>
